<?xml version="1.0" encoding="utf-8"?>
<!-- Generator: Adobe Illustrator 24.0.0, SVG Export Plug-In . SVG Version: 6.00 Build 0)  -->
<svg version="1.1" id="Layer_1" xmlns="http://www.w3.org/2000/svg" xmlns:xlink="http://www.w3.org/1999/xlink" x="0px" y="0px"
	 viewBox="0 0 70 15" style="enable-background:new 0 0 70 15;" xml:space="preserve">
<style type="text/css">
	.st0{fill:#1D1D1B;}
</style>
<path class="st0" d="M68.19,6.19l-7.11-4.53c-0.23-0.15-0.54-0.08-0.69,0.15s-0.08,0.54,0.15,0.69l5.67,3.61H1.7
	c-0.28,0-0.5,0.22-0.5,0.5s0.22,0.5,0.5,0.5H66.2l-5.67,3.61c-0.23,0.15-0.3,0.46-0.15,0.69c0.1,0.15,0.26,0.23,0.42,0.23
	c0.09,0,0.18-0.03,0.27-0.08l7.11-4.53c0.14-0.09,0.23-0.25,0.23-0.42S68.33,6.28,68.19,6.19z"/>
</svg>
