<?xml version="1.0" encoding="utf-8"?>
<!-- Generator: Adobe Illustrator 24.0.0, SVG Export Plug-In . SVG Version: 6.00 Build 0)  -->
<svg version="1.1" id="Layer_1" xmlns="http://www.w3.org/2000/svg" xmlns:xlink="http://www.w3.org/1999/xlink" x="0px" y="0px"
	 viewBox="0 0 120 120" style="enable-background:new 0 0 120 120;" xml:space="preserve">
<style type="text/css">
	.st0{fill:#FFA017;}
</style>
<path class="st0" d="M51.13,49.21c0-0.94-0.26-1.73-0.78-2.39c-0.52-0.65-1.29-0.98-2.33-0.98c-1,0-1.77,0.29-2.31,0.88
	s-0.82,1.34-0.82,2.26c0,1.43,0.88,3.34,2.64,5.74C49.93,53.37,51.13,51.53,51.13,49.21z"/>
<path class="st0" d="M60,0.71c-26.85,0-49.52,17.86-56.82,42.34c2.27-1.95,5.22-2.92,8.86-2.92c4.79,0,8.4,1.74,10.85,5.21
	c2.45,3.48,3.68,8.49,3.68,15.03c0,4.71-0.54,8.65-1.63,11.82c-1.08,3.17-2.98,5.64-5.7,7.4c0.02,1.15,0.26,1.94,0.73,2.36
	s1.18,0.63,2.14,0.63c0.9,0,1.89-0.15,2.99-0.44v6.33C23.84,88.82,22.59,89,21.36,89c-5,0-7.66-2.57-7.97-7.71
	c-0.72,0.04-1.28,0.06-1.67,0.06c-3.11,0-5.76-0.87-7.97-2.6C11.6,102.3,33.81,119.29,60,119.29c32.75,0,59.29-26.55,59.29-59.29
	C119.29,27.25,92.75,0.71,60,0.71z M64.72,73.99c0.18,0,0.63-0.02,1.38-0.06v6.8c-1.09,0.27-2.11,0.41-3.05,0.41
	c-2.77,0-5.36-1.26-7.76-3.78c-3.26,2.66-6.88,3.98-10.87,3.98c-4.41,0-7.64-1.18-9.68-3.54c-2.04-2.36-3.06-5.12-3.06-8.26
	c0-5.14,3.03-8.98,9.08-11.54c-2.48-3.4-3.72-6.39-3.72-8.96c0-2.4,0.98-4.49,2.94-6.25c1.96-1.77,4.5-2.65,7.6-2.65
	c3.14,0,5.64,0.92,7.49,2.75c1.85,1.84,2.77,4.1,2.77,6.8c0,4.02-2.3,7.23-6.91,9.61l5.54,7.35c1.27-2.07,2.3-5,3.11-8.79l6.53,1.17
	c-1.07,4.73-2.89,8.99-5.45,12.8C62.04,73.27,63.39,73.99,64.72,73.99z M89.89,80.73l-2-8.26H76.63l-1.96,8.26H66.6l12.01-39.99
	h8.85l11.43,39.99H89.89z"/>
<polygon class="st0" points="78.33,65.62 86.24,65.62 82.2,49.23 "/>
<path class="st0" d="M40.02,69.01c0,1.68,0.5,3.06,1.49,4.13c1,1.07,2.4,1.61,4.22,1.61c2.13,0,3.99-0.78,5.6-2.34l-7.24-9.79
	C41.38,64.27,40.02,66.4,40.02,69.01z"/>
<path class="st0" d="M16.04,71.53c0.85-1.78,1.28-5.38,1.28-10.81c0-5.39-0.42-8.98-1.26-10.77s-2.18-2.68-4.01-2.68
	c-1.82,0-3.15,0.9-3.98,2.7c-0.84,1.8-1.26,5.38-1.26,10.75c0,5.27,0.41,8.84,1.25,10.69c0.83,1.86,2.16,2.78,4,2.78
	C13.86,74.2,15.19,73.31,16.04,71.53z"/>
</svg>
